<?xml version="1.0" encoding="utf-8"?>
<svg xmlns="http://www.w3.org/2000/svg" xmlns:xlink="http://www.w3.org/1999/xlink" style="margin: auto; background: none; display: block; shape-rendering: auto;" width="200px" height="200px" viewBox="0 0 100 100" preserveAspectRatio="xMidYMid">
<g transform="translate(50 50)">
<g>
<animateTransform attributeName="transform" type="rotate" values="0;45" keyTimes="0;1" dur="0.25510204081632654s" repeatCount="indefinite"></animateTransform><path d="M25.411611519146124 -5.5 L33.41161151914612 -5.5 L33.41161151914612 5.5 L25.411611519146124 5.5 A26 26 0 0 1 21.857810122592422 14.079635529540397 L21.857810122592422 14.079635529540397 L27.514664372084802 19.736489779032777 L19.73648977903278 27.514664372084802 L14.0796355295404 21.857810122592422 A26 26 0 0 1 5.499999999999998 25.411611519146124 L5.499999999999998 25.411611519146124 L5.499999999999998 33.41161151914612 L-5.499999999999996 33.41161151914612 L-5.499999999999996 25.411611519146124 A26 26 0 0 1 -14.0796355295404 21.857810122592422 L-14.0796355295404 21.857810122592422 L-19.73648977903278 27.514664372084802 L-27.5146643720848 19.736489779032784 L-21.85781012259242 14.079635529540402 A26 26 0 0 1 -25.411611519146124 5.5 L-25.411611519146124 5.5 L-33.41161151914612 5.500000000000001 L-33.41161151914612 -5.499999999999993 L-25.411611519146124 -5.499999999999994 A26 26 0 0 1 -21.857810122592422 -14.079635529540397 L-21.857810122592422 -14.079635529540397 L-27.514664372084802 -19.736489779032777 L-19.736489779032773 -27.514664372084802 L-14.079635529540393 -21.857810122592422 A26 26 0 0 1 -5.500000000000013 -25.411611519146124 L-5.500000000000013 -25.411611519146124 L-5.500000000000015 -33.41161151914612 L5.500000000000002 -33.41161151914612 L5.5000000000000036 -25.411611519146124 A26 26 0 0 1 14.079635529540385 -21.85781012259243 L14.079635529540385 -21.85781012259243 L19.736489779032766 -27.51466437208481 L27.514664372084802 -19.73648977903278 L21.857810122592422 -14.079635529540397 A26 26 0 0 1 25.411611519146124 -5.500000000000014 M0 -18A18 18 0 1 0 0 18 A18 18 0 1 0 0 -18" fill="#5797ff"></path></g></g>
<!-- [ldio] generated by https://loading.io/ --></svg>